<svg width="343" height="13" viewBox="0 0 343 13" fill="none" xmlns="http://www.w3.org/2000/svg">
<path d="M10.496 10.496C9.36533 11.6267 8 12.192 6.4 12.192C4.8 12.192 3.43467 11.6267 2.304 10.496C1.17333 9.36533 0.608 8 0.608 6.4C0.608 4.8 1.17333 3.43467 2.304 2.304C3.43467 1.17333 4.8 0.608 6.4 0.608C8 0.608 9.36533 1.17333 10.496 2.304C11.6267 3.43467 12.192 4.8 12.192 6.4C12.192 8 11.6267 9.36533 10.496 10.496ZM6.4 11.712C7.85067 11.712 9.088 11.1947 10.112 10.16C11.1467 9.12533 11.664 7.872 11.664 6.4C11.664 4.928 11.1467 3.67467 10.112 2.64C9.088 1.60533 7.85067 1.088 6.4 1.088C4.93867 1.088 3.69067 1.60533 2.656 2.64C1.632 3.67467 1.12 4.928 1.12 6.4C1.12 7.872 1.632 9.12533 2.656 10.16C3.69067 11.1947 4.93867 11.712 6.4 11.712ZM6.448 9.488C5.57333 9.488 4.832 9.18933 4.224 8.592C3.616 7.984 3.312 7.25333 3.312 6.4C3.312 5.54667 3.616 4.82133 4.224 4.224C4.832 3.616 5.57333 3.312 6.448 3.312C7.01333 3.312 7.53067 3.44533 8 3.712C8.46933 3.97867 8.832 4.34667 9.088 4.816L7.984 5.456C7.70667 4.85867 7.18933 4.56 6.432 4.56C5.888 4.56 5.44533 4.74133 5.104 5.104C4.77333 5.46667 4.608 5.89867 4.608 6.4C4.608 6.90133 4.77333 7.33333 5.104 7.696C5.44533 8.05867 5.888 8.24 6.432 8.24C6.77333 8.24 7.088 8.16 7.376 8C7.664 7.84 7.872 7.616 8 7.328L9.104 7.984C8.848 8.44267 8.48 8.81067 8 9.088C7.53067 9.35467 7.01333 9.488 6.448 9.488ZM18.5413 2.544C18.2746 2.544 18.0506 2.45333 17.8693 2.272C17.6879 2.09067 17.5973 1.872 17.5973 1.616C17.5973 1.36 17.6879 1.14133 17.8693 0.959999C18.0506 0.768 18.2746 0.672 18.5413 0.672C18.7973 0.672 19.0159 0.768 19.1973 0.959999C19.3786 1.14133 19.4693 1.36 19.4693 1.616C19.4693 1.872 19.3786 2.09067 19.1973 2.272C19.0159 2.45333 18.7973 2.544 18.5413 2.544ZM17.8372 12V4H19.2293V12H17.8372ZM22.9849 10.592H27.8169V12H21.4969V0.799999H22.9849V10.592ZM29.3094 0.799999H30.7974V12H29.3094V0.799999ZM40.16 0.799999H41.648V12H40.448L34.688 3.632V12H33.2V0.799999H34.4L40.16 9.152V0.799999ZM52.1878 12H50.3638L45.5318 6.624V12H44.0438V0.799999H45.5318V5.856L50.2038 0.799999H52.0278L47.0838 6.24L52.1878 12ZM64.8885 12L63.9765 9.488H58.9365L58.0245 12H56.4405L60.6165 0.799999H62.2965L66.4725 12H64.8885ZM59.4485 8.096H63.4645L61.4485 2.576L59.4485 8.096ZM72.6515 12.208C70.9555 12.208 69.5528 11.648 68.4435 10.528C67.3448 9.408 66.7955 8.032 66.7955 6.4C66.7955 4.768 67.3448 3.392 68.4435 2.272C69.5528 1.152 70.9555 0.591999 72.6515 0.591999C73.6755 0.591999 74.6142 0.837332 75.4675 1.328C76.3315 1.81867 77.0035 2.48 77.4835 3.312L76.1875 4.064C75.8675 3.44533 75.3875 2.95467 74.7475 2.592C74.1182 2.21867 73.4195 2.032 72.6515 2.032C71.3608 2.032 70.3048 2.448 69.4835 3.28C68.6728 4.112 68.2675 5.152 68.2675 6.4C68.2675 7.63733 68.6728 8.672 69.4835 9.504C70.3048 10.336 71.3608 10.752 72.6515 10.752C73.4195 10.752 74.1182 10.5707 74.7475 10.208C75.3875 9.83467 75.8675 9.344 76.1875 8.736L77.4835 9.472C77.0142 10.304 76.3475 10.9707 75.4835 11.472C74.6195 11.9627 73.6755 12.208 72.6515 12.208ZM86.4198 12L85.5078 9.488H80.4678L79.5558 12H77.9718L82.1478 0.799999H83.8278L88.0038 12H86.4198ZM80.9798 8.096H84.9958L82.9798 2.576L80.9798 8.096ZM93.693 0.799999C95.2183 0.799999 96.4823 1.344 97.485 2.432C98.4983 3.50933 99.005 4.832 99.005 6.4C99.005 7.968 98.4983 9.296 97.485 10.384C96.4823 11.4613 95.2183 12 93.693 12H89.325V0.799999H93.693ZM93.693 10.592C94.8343 10.592 95.7677 10.192 96.493 9.392C97.2183 8.592 97.581 7.59467 97.581 6.4C97.581 5.20533 97.2183 4.208 96.493 3.408C95.7677 2.608 94.8343 2.208 93.693 2.208H90.813V10.592H93.693ZM102.297 10.592H107.497V12H100.809V0.799999H107.417V2.208H102.297V5.648H107.017V7.04H102.297V10.592ZM119.774 0.799999V12H118.302V3.248L114.638 9.344H114.446L110.782 3.264V12H109.294V0.799999H110.974L114.542 6.72L118.094 0.799999H119.774ZM130.505 0.799999L126.537 7.472V12H125.049V7.456L121.097 0.799999H122.761L125.801 6.048L128.841 0.799999H130.505ZM130.639 12.176C130.351 12.176 130.106 12.0747 129.903 11.872C129.7 11.6693 129.599 11.424 129.599 11.136C129.599 10.848 129.7 10.6027 129.903 10.4C130.106 10.1973 130.351 10.096 130.639 10.096C130.938 10.096 131.183 10.1973 131.375 10.4C131.578 10.6027 131.679 10.848 131.679 11.136C131.679 11.424 131.578 11.6693 131.375 11.872C131.183 12.0747 130.938 12.176 130.639 12.176ZM145.17 12L144.258 9.488H139.218L138.306 12H136.722L140.898 0.799999H142.578L146.754 12H145.17ZM139.73 8.096H143.746L141.73 2.576L139.73 8.096ZM149.563 10.592H154.395V12H148.075V0.799999H149.563V10.592ZM157.376 10.592H162.208V12H155.888V0.799999H157.376V10.592ZM174.34 12L171.828 7.712H169.188V12H167.7V0.799999H172.18C173.14 0.799999 173.961 1.14133 174.644 1.824C175.327 2.496 175.668 3.312 175.668 4.272C175.668 4.99733 175.449 5.65867 175.012 6.256C174.585 6.85333 174.031 7.27467 173.348 7.52L175.988 12H174.34ZM169.188 2.192V6.368H172.18C172.735 6.368 173.204 6.16533 173.588 5.76C173.983 5.344 174.18 4.848 174.18 4.272C174.18 3.696 173.983 3.20533 173.588 2.8C173.204 2.39467 172.735 2.192 172.18 2.192H169.188ZM177.481 0.799999H178.969V12H177.481V0.799999ZM192.172 6.448V7.12C192.172 8.58133 191.671 9.79733 190.668 10.768C189.665 11.728 188.337 12.208 186.684 12.208C184.977 12.208 183.564 11.648 182.444 10.528C181.335 9.39733 180.78 8.02133 180.78 6.4C180.78 4.77867 181.335 3.408 182.444 2.288C183.564 1.15733 184.967 0.591999 186.652 0.591999C187.687 0.591999 188.636 0.842666 189.5 1.344C190.364 1.83467 191.031 2.48533 191.5 3.296L190.22 4.048C189.9 3.44 189.415 2.95467 188.764 2.592C188.124 2.21867 187.415 2.032 186.636 2.032C185.356 2.032 184.305 2.45333 183.484 3.296C182.663 4.128 182.252 5.16267 182.252 6.4C182.252 7.63733 182.663 8.672 183.484 9.504C184.316 10.336 185.388 10.752 186.7 10.752C187.82 10.752 188.727 10.48 189.42 9.936C190.113 9.38133 190.535 8.66667 190.684 7.792H186.572V6.448H192.172ZM200.909 0.799999H202.381V12H200.909V6.96H195.469V12H193.981V0.799999H195.469V5.552H200.909V0.799999ZM211.946 0.799999V2.208H208.634V12H207.162V2.208H203.866V0.799999H211.946ZM216.722 12.208C215.677 12.208 214.781 11.9627 214.034 11.472C213.298 10.9813 212.781 10.3093 212.482 9.456L213.762 8.72C214.2 10.0747 215.197 10.752 216.754 10.752C217.522 10.752 218.109 10.5973 218.514 10.288C218.92 9.968 219.122 9.54667 219.122 9.024C219.122 8.49067 218.92 8.09067 218.514 7.824C218.109 7.55733 217.432 7.27467 216.482 6.976C216.013 6.82667 215.656 6.70933 215.41 6.624C215.165 6.528 214.856 6.38933 214.482 6.208C214.12 6.016 213.848 5.824 213.666 5.632C213.485 5.42933 213.32 5.168 213.17 4.848C213.032 4.528 212.962 4.16533 212.962 3.76C212.962 2.78933 213.304 2.02133 213.986 1.456C214.669 0.879999 215.501 0.591999 216.482 0.591999C217.368 0.591999 218.136 0.815999 218.786 1.264C219.448 1.712 219.944 2.304 220.274 3.04L219.026 3.76C218.546 2.608 217.698 2.032 216.482 2.032C215.874 2.032 215.384 2.18133 215.01 2.48C214.637 2.77867 214.45 3.184 214.45 3.696C214.45 4.18667 214.626 4.56 214.978 4.816C215.33 5.072 215.938 5.33867 216.802 5.616C217.112 5.712 217.33 5.78133 217.458 5.824C217.586 5.86667 217.784 5.94133 218.05 6.048C218.328 6.15467 218.53 6.24 218.658 6.304C218.786 6.368 218.957 6.45867 219.17 6.576C219.394 6.69333 219.56 6.80533 219.666 6.912C219.773 7.01867 219.896 7.152 220.034 7.312C220.184 7.46133 220.29 7.616 220.354 7.776C220.418 7.936 220.472 8.12267 220.514 8.336C220.568 8.53867 220.594 8.75733 220.594 8.992C220.594 9.97333 220.237 10.7573 219.522 11.344C218.808 11.92 217.874 12.208 216.722 12.208ZM232.996 12L230.484 7.712H227.844V12H226.356V0.799999H230.836C231.796 0.799999 232.618 1.14133 233.3 1.824C233.983 2.496 234.324 3.312 234.324 4.272C234.324 4.99733 234.106 5.65867 233.668 6.256C233.242 6.85333 232.687 7.27467 232.004 7.52L234.644 12H232.996ZM227.844 2.192V6.368H230.836C231.391 6.368 231.86 6.16533 232.244 5.76C232.639 5.344 232.836 4.848 232.836 4.272C232.836 3.696 232.639 3.20533 232.244 2.8C231.86 2.39467 231.391 2.192 230.836 2.192H227.844ZM237.626 10.592H242.826V12H236.138V0.799999H242.746V2.208H237.626V5.648H242.346V7.04H237.626V10.592ZM248.238 12.208C247.193 12.208 246.297 11.9627 245.55 11.472C244.814 10.9813 244.297 10.3093 243.998 9.456L245.278 8.72C245.715 10.0747 246.713 10.752 248.27 10.752C249.038 10.752 249.625 10.5973 250.03 10.288C250.435 9.968 250.638 9.54667 250.638 9.024C250.638 8.49067 250.435 8.09067 250.03 7.824C249.625 7.55733 248.947 7.27467 247.998 6.976C247.529 6.82667 247.171 6.70933 246.926 6.624C246.681 6.528 246.371 6.38933 245.998 6.208C245.635 6.016 245.363 5.824 245.182 5.632C245.001 5.42933 244.835 5.168 244.686 4.848C244.547 4.528 244.478 4.16533 244.478 3.76C244.478 2.78933 244.819 2.02133 245.502 1.456C246.185 0.879999 247.017 0.591999 247.998 0.591999C248.883 0.591999 249.651 0.815999 250.302 1.264C250.963 1.712 251.459 2.304 251.79 3.04L250.542 3.76C250.062 2.608 249.214 2.032 247.998 2.032C247.39 2.032 246.899 2.18133 246.526 2.48C246.153 2.77867 245.966 3.184 245.966 3.696C245.966 4.18667 246.142 4.56 246.494 4.816C246.846 5.072 247.454 5.33867 248.318 5.616C248.627 5.712 248.846 5.78133 248.974 5.824C249.102 5.86667 249.299 5.94133 249.566 6.048C249.843 6.15467 250.046 6.24 250.174 6.304C250.302 6.368 250.473 6.45867 250.686 6.576C250.91 6.69333 251.075 6.80533 251.182 6.912C251.289 7.01867 251.411 7.152 251.55 7.312C251.699 7.46133 251.806 7.616 251.87 7.776C251.934 7.936 251.987 8.12267 252.03 8.336C252.083 8.53867 252.11 8.75733 252.11 8.992C252.11 9.97333 251.753 10.7573 251.038 11.344C250.323 11.92 249.39 12.208 248.238 12.208ZM255.282 10.592H260.482V12H253.794V0.799999H260.402V2.208H255.282V5.648H260.002V7.04H255.282V10.592ZM268.918 12L266.406 7.712H263.766V12H262.278V0.799999H266.758C267.718 0.799999 268.539 1.14133 269.222 1.824C269.905 2.496 270.246 3.312 270.246 4.272C270.246 4.99733 270.027 5.65867 269.59 6.256C269.163 6.85333 268.609 7.27467 267.926 7.52L270.566 12H268.918ZM263.766 2.192V6.368H266.758C267.313 6.368 267.782 6.16533 268.166 5.76C268.561 5.344 268.758 4.848 268.758 4.272C268.758 3.696 268.561 3.20533 268.166 2.8C267.782 2.39467 267.313 2.192 266.758 2.192H263.766ZM274.816 12L270.816 0.799999H272.416L275.664 10.144L278.896 0.799999H280.512L276.496 12H274.816ZM283.313 10.592H288.513V12H281.825V0.799999H288.433V2.208H283.313V5.648H288.033V7.04H283.313V10.592ZM294.677 0.799999C296.203 0.799999 297.467 1.344 298.469 2.432C299.483 3.50933 299.989 4.832 299.989 6.4C299.989 7.968 299.483 9.296 298.469 10.384C297.467 11.4613 296.203 12 294.677 12H290.309V0.799999H294.677ZM294.677 10.592C295.819 10.592 296.752 10.192 297.477 9.392C298.203 8.592 298.565 7.59467 298.565 6.4C298.565 5.20533 298.203 4.208 297.477 3.408C296.752 2.608 295.819 2.208 294.677 2.208H291.797V10.592H294.677ZM301.717 12.176C301.429 12.176 301.184 12.0747 300.981 11.872C300.779 11.6693 300.677 11.424 300.677 11.136C300.677 10.848 300.779 10.6027 300.981 10.4C301.184 10.1973 301.429 10.096 301.717 10.096C302.016 10.096 302.261 10.1973 302.453 10.4C302.656 10.6027 302.757 10.848 302.757 11.136C302.757 11.424 302.656 11.6693 302.453 11.872C302.261 12.0747 302.016 12.176 301.717 12.176ZM308.248 12V10.784L312.2 6.752C313.256 5.696 313.784 4.78933 313.784 4.032C313.784 3.40267 313.592 2.912 313.208 2.56C312.824 2.208 312.355 2.032 311.8 2.032C310.744 2.032 309.976 2.53333 309.496 3.536L308.248 2.8C308.6 2.07467 309.085 1.52533 309.704 1.152C310.333 0.778666 311.027 0.591999 311.784 0.591999C312.723 0.591999 313.539 0.901333 314.232 1.52C314.925 2.13867 315.272 2.97067 315.272 4.016C315.272 5.14667 314.605 6.37867 313.272 7.712L310.408 10.56H315.48V12H308.248ZM324.177 10.624C323.42 11.68 322.358 12.208 320.993 12.208C319.628 12.208 318.566 11.68 317.809 10.624C317.052 9.568 316.673 8.16 316.673 6.4C316.673 4.64 317.052 3.232 317.809 2.176C318.566 1.12 319.628 0.591999 320.993 0.591999C322.358 0.591999 323.42 1.12 324.177 2.176C324.934 3.232 325.313 4.64 325.313 6.4C325.313 8.16 324.934 9.568 324.177 10.624ZM318.897 9.616C319.388 10.3733 320.086 10.752 320.993 10.752C321.9 10.752 322.598 10.3733 323.089 9.616C323.59 8.85867 323.841 7.78667 323.841 6.4C323.841 5.01333 323.59 3.94133 323.089 3.184C322.598 2.416 321.9 2.032 320.993 2.032C320.086 2.032 319.388 2.41067 318.897 3.168C318.406 3.92533 318.161 5.00267 318.161 6.4C318.161 7.78667 318.406 8.85867 318.897 9.616ZM326.404 12V10.784L330.356 6.752C331.412 5.696 331.94 4.78933 331.94 4.032C331.94 3.40267 331.748 2.912 331.364 2.56C330.98 2.208 330.511 2.032 329.956 2.032C328.9 2.032 328.132 2.53333 327.652 3.536L326.404 2.8C326.756 2.07467 327.241 1.52533 327.86 1.152C328.489 0.778666 329.183 0.591999 329.94 0.591999C330.879 0.591999 331.695 0.901333 332.388 1.52C333.081 2.13867 333.428 2.97067 333.428 4.016C333.428 5.14667 332.761 6.37867 331.428 7.712L328.564 10.56H333.636V12H326.404ZM334.842 12V10.784L338.794 6.752C339.85 5.696 340.378 4.78933 340.378 4.032C340.378 3.40267 340.186 2.912 339.802 2.56C339.418 2.208 338.948 2.032 338.394 2.032C337.338 2.032 336.57 2.53333 336.09 3.536L334.842 2.8C335.194 2.07467 335.679 1.52533 336.298 1.152C336.927 0.778666 337.62 0.591999 338.378 0.591999C339.316 0.591999 340.132 0.901333 340.826 1.52C341.519 2.13867 341.866 2.97067 341.866 4.016C341.866 5.14667 341.199 6.37867 339.866 7.712L337.002 10.56H342.074V12H334.842Z" fill="#8A8A8A"/>
</svg>
