<svg width="60" height="36" viewBox="0 0 60 36" fill="none" xmlns="http://www.w3.org/2000/svg">
<path fill-rule="evenodd" clip-rule="evenodd" d="M48.435 22.285H43.0833V0.742857H48.3804V12.6587C49.1298 12.8723 49.614 12.7965 50.0118 12.1232C50.8101 10.7742 51.6944 9.47223 52.5749 8.17022C52.6493 8.05505 52.7469 7.95581 52.8621 7.87859C52.9774 7.80136 53.1074 7.74781 53.2448 7.7211H58.8317L54.3412 14.2539C54.1966 14.4126 54.1181 14.618 54.1215 14.8298C54.125 15.0417 54.2094 15.2447 54.359 15.3991C55.8062 17.3873 57.7231 20.2786 59.1429 22.285H55.1086C55.1086 22.285 52.9768 22.3756 52.0492 20.5231C51.3395 19.3452 50.7163 18.4167 49.9875 17.3896C49.8994 17.2653 49.8928 17.1786 49.7255 17.0212C49.614 16.9164 49.4825 16.8341 49.3379 16.779C49.1936 16.7238 49.0394 16.697 48.8842 16.7C48.7291 16.703 48.5761 16.7359 48.4343 16.7966L48.435 22.285ZM40.3196 22.285H34.9882V21.3926C34.9851 18.9906 34.9851 16.5882 34.9882 14.1857C34.9882 12.8291 34.5766 12.1119 33.5896 11.7839C33.0194 11.6136 32.4105 11.6089 31.8379 11.7704C31.2649 11.9319 30.7534 12.2525 30.3658 12.6928C30.2171 12.9364 30.1468 13.2176 30.1638 13.5003C30.1498 16.024 30.156 18.547 30.156 21.0745V22.285H24.8239V7.73472H29.4792L29.5727 9.21474C29.7911 9.04051 29.9229 8.94205 30.0476 8.83601C30.9785 8.00905 32.1389 7.46559 33.3845 7.27294C34.6305 7.08026 35.9071 7.24685 37.0565 7.75212C38.0214 8.10633 38.8499 8.74182 39.4288 9.57143C40.0074 10.401 40.3078 11.3842 40.2885 12.3861C40.2885 12.3861 40.3196 18.9682 40.3196 22.285ZM13.8031 22.285H8.54584V4.16739e-08H13.8031V22.285ZM0.443676 7.72488H5.7041V22.285H0.443676V7.72488ZM16.6993 7.72488H21.9651V22.285H16.6993V7.72488ZM3.09494 5.67982C2.6982 5.70226 2.30092 5.64593 1.92734 5.51426C1.55377 5.38262 1.21173 5.17839 0.922106 4.91406C0.632483 4.64976 0.401349 4.33086 0.242815 3.97692C0.0842819 3.62295 0.00166963 3.2413 2.50477e-05 2.85528C-0.00161953 2.46928 0.0777369 2.087 0.233249 1.73177C0.388761 1.37654 0.617172 1.05581 0.90453 0.789171C1.19189 0.522532 1.53217 0.315566 1.90462 0.180907C2.27706 0.0462497 2.67385 -0.0132648 3.07076 0.00597499C4.93133 0.000673027 6.14779 1.10119 6.1548 2.79479C6.18181 3.18797 6.12043 3.58218 5.97489 3.95002C5.82939 4.31786 5.60324 4.65056 5.31214 4.92502C5.02103 5.1995 4.67194 5.40918 4.28908 5.53952C3.90621 5.66986 3.49876 5.71774 3.09494 5.67982ZM19.31 5.67982C18.7402 5.64571 18.1932 5.45047 17.7362 5.11816C17.2792 4.78589 16.9323 4.33101 16.7381 3.80962C16.544 3.28823 16.511 2.72303 16.6433 2.18366C16.7756 1.6443 17.0675 1.15431 17.4829 0.774008C17.8983 0.393708 18.4191 0.139718 18.9813 0.0433052C19.5434 -0.0531068 20.1223 0.0122694 20.6467 0.23139C21.171 0.450512 21.618 0.813791 21.9325 1.27652C22.247 1.73926 22.4153 2.28124 22.4167 2.83571C22.4335 3.22905 22.3629 3.62127 22.2098 3.98577C22.0567 4.35026 21.8246 4.67845 21.5293 4.94808C21.234 5.21767 20.8823 5.42239 20.4983 5.54828C20.1143 5.67413 19.7069 5.71824 19.3038 5.67753L19.31 5.67982Z" fill="#585CC6"/>
<path d="M1.87582 35.886L2.49032 33.9835H5.47789L6.09239 35.886H7.96821L5.11405 27.5427H2.8582L0 35.886H1.87582ZM2.93502 32.6065L3.95378 29.4492H4.01847L5.03723 32.6065H2.93502Z" fill="#585CC6"/>
<path d="M15.9947 30.4636C15.7643 28.5367 14.317 27.4286 12.4007 27.4286C10.2136 27.4286 8.54393 28.9848 8.54393 31.7143C8.54393 34.4357 10.1853 36 12.4007 36C14.5231 36 15.8047 34.5782 15.9947 33.0424L14.224 33.0342C14.0582 33.9264 13.3629 34.4397 12.429 34.4397C11.1717 34.4397 10.3187 33.4987 10.3187 31.7143C10.3187 29.9788 11.1596 28.9889 12.4411 28.9889C13.3993 28.9889 14.0906 29.547 14.224 30.4636H15.9947Z" fill="#585CC6"/>
<path d="M18.6352 35.886L19.2497 33.9835H22.2373L22.8518 35.886H24.7276L21.8735 27.5427H19.6176L16.7594 35.886H18.6352ZM19.6944 32.6065L20.7132 29.4492H20.7779L21.7966 32.6065H19.6944Z" fill="#585CC6"/>
<path d="M28.773 35.886C31.2957 35.886 32.8238 34.3134 32.8238 31.7062C32.8238 29.107 31.2957 27.5427 28.7973 27.5427H25.838V35.886H28.773ZM27.5885 34.3745V29.0541H28.7043C30.2567 29.0541 31.0774 29.8525 31.0774 31.7062C31.0774 33.5679 30.2567 34.3745 28.7002 34.3745H27.5885Z" fill="#585CC6"/>
<path d="M34.2344 35.886H39.8295V34.4316H35.9849V32.4395H39.5263V30.9851H35.9849V28.997H39.8133V27.5427H34.2344V35.886Z" fill="#585CC6"/>
<path d="M41.3189 27.5427V35.886H43.0168V30.4351H43.0856L45.2282 35.8452H46.3844L48.5271 30.4555H48.5958V35.886H50.2937V27.5427H48.1349L45.8548 33.1483H45.7578L43.4777 27.5427H41.3189Z" fill="#585CC6"/>
<path d="M51.3647 27.5427L54.3846 32.9365V35.886H56.123V32.9365L59.1429 27.5427H57.1822L55.2942 31.1358H55.2134L53.3254 27.5427H51.3647Z" fill="#585CC6"/>
</svg>
